<svg width="18" height="16" viewBox="0 0 18 16" fill="none" xmlns="http://www.w3.org/2000/svg">
<path d="M17.1766 7.28813L13.8354 10.204L14.8363 14.5453C14.8892 14.7722 14.8741 15.0098 14.7928 15.2282C14.7115 15.4466 14.5677 15.6362 14.3792 15.7733C14.1907 15.9103 13.966 15.9888 13.7332 15.9989C13.5004 16.009 13.2697 15.9502 13.0701 15.8299L9.28376 13.5333L5.50553 15.8299C5.30593 15.9502 5.0753 16.009 4.84247 15.9989C4.60964 15.9888 4.38495 15.9103 4.19648 15.7733C4.00802 15.6362 3.86414 15.4466 3.78284 15.2282C3.70155 15.0098 3.68643 14.7722 3.7394 14.5453L4.73878 10.2085L1.39689 7.28813C1.22014 7.13569 1.09233 6.93445 1.02948 6.70965C0.966643 6.48486 0.971569 6.24651 1.04365 6.0245C1.11572 5.8025 1.25174 5.60671 1.43465 5.4617C1.61755 5.31669 1.8392 5.22891 2.07179 5.20936L6.47676 4.82784L8.19623 0.726606C8.28602 0.511407 8.43748 0.327586 8.63153 0.198289C8.82558 0.068992 9.05354 0 9.28673 0C9.51991 0 9.74788 0.068992 9.94193 0.198289C10.136 0.327586 10.2874 0.511407 10.3772 0.726606L12.1019 4.82784L16.5054 5.20936C16.738 5.22891 16.9596 5.31669 17.1425 5.4617C17.3254 5.60671 17.4614 5.8025 17.5335 6.0245C17.6056 6.24651 17.6105 6.48486 17.5477 6.70965C17.4848 6.93445 17.357 7.13569 17.1803 7.28813H17.1766Z" fill="#FFB344"/>
</svg>
